<svg xmlns="http://www.w3.org/2000/svg" version="1.1" xmlns:xlink="http://www.w3.org/1999/xlink" xmlns:svgjs="http://svgjs.com/svgjs" width="1920" height="1080" preserveAspectRatio="none" viewBox="0 0 1920 1080"><g mask="url(&quot;#SvgjsMask1023&quot;)" fill="none"><rect width="1920" height="1080" x="0" y="0" fill="rgba(255, 255, 255, 1)"></rect><path d="M483.014,820.924C514.636,823.346,548.502,815.823,565.988,789.364C585.084,760.468,584.94,722.605,567.927,692.435C550.616,661.736,518.257,641.943,483.014,642.221C448.225,642.495,415.123,662.239,400.39,693.756C387.301,721.758,402.637,752.222,419.478,778.142C434.388,801.09,455.728,818.834,483.014,820.924" fill="rgba(185, 255, 229, 1)" class="triangle-float1"></path><path d="M265.53866026441 492.21053679163344L375.2709455260938 643.2440703178004 526.3044790522606 533.5117850561165 416.5721937905769 382.47825152994966z" fill="rgba(185, 255, 229, 1)" class="triangle-float1"></path><path d="M1686.981,1278.837C1766.404,1283.426,1854.634,1273.642,1897.657,1206.724C1943.32,1135.7,1932.555,1040.542,1885.077,970.719C1842.608,908.263,1762.496,898.225,1686.981,896.897C1608.095,895.51,1516.983,895.849,1476.437,963.532C1435.248,1032.288,1470.123,1117.94,1514.632,1184.595C1553.603,1242.958,1616.92,1274.789,1686.981,1278.837" fill="rgba(185, 255, 229, 1)" class="triangle-float1"></path><path d="M760.3,955.381C829.283,953.684,886.186,905.882,918.874,845.112C949.755,787.701,946.57,721.127,917.76,662.65C884.555,595.252,835.311,527.546,760.3,523.245C679.609,518.619,605.592,570.992,568.119,642.604C533.077,709.572,548.044,788.864,587.612,853.261C625.135,914.33,688.646,957.144,760.3,955.381" fill="rgba(185, 255, 229, 1)" class="triangle-float2"></path><path d="M1426.846,517.132C1467.746,516.8,1508.109,502.463,1530.299,468.105C1554.467,430.684,1560.712,382.524,1538.852,343.709C1516.634,304.257,1472.043,281.698,1426.846,284.41C1385.602,286.885,1356.494,320.049,1335.927,355.884C1315.481,391.51,1300.266,434.029,1320.44,469.809C1340.874,506.05,1385.242,517.47,1426.846,517.132" fill="rgba(185, 255, 229, 1)" class="triangle-float1"></path><path d="M846.3380114661459 585.0583697327303L621.6093600918668 503.0212022312312 654.3242539052737 709.5749125980619z" fill="rgba(185, 255, 229, 1)" class="triangle-float3"></path><path d="M795.6950608443793 179.90888955908875L842.7744942408954-115.5164704219402 597.038374794607-26.075837459407097z" fill="rgba(185, 255, 229, 1)" class="triangle-float3"></path><path d="M1910.127,1002.797C1970.915,999.147,2019.846,958.776,2050.565,906.195C2081.614,853.049,2094.996,789.373,2066.77,734.676C2036.267,675.567,1976.592,631.469,1910.127,634.051C1846.978,636.504,1805.535,691.76,1773.232,746.077C1739.894,802.134,1706.398,867.469,1737.086,925.019C1768.978,984.826,1842.47,1006.86,1910.127,1002.797" fill="rgba(185, 255, 229, 1)" class="triangle-float3"></path><path d="M56.394,186.242C97.2,186.361,126.636,152.976,148.259,118.37C171.753,80.771,195.498,36.189,174.581,-2.903C152.924,-43.378,102.235,-55.745,56.394,-53.314C14.951,-51.116,-22.434,-28.071,-41.907,8.578C-60.264,43.127,-53.486,83.604,-34.545,117.836C-14.863,153.409,15.739,186.123,56.394,186.242" fill="rgba(185, 255, 229, 1)" class="triangle-float2"></path><path d="M1464.015594515461 336.09494546032465L1577.048492558479 475.67894984856383 1729.908050119329 236.33760058991726z" fill="rgba(185, 255, 229, 1)" class="triangle-float1"></path></g><defs><mask id="SvgjsMask1023"><rect width="1920" height="1080" fill="#ffffff"></rect></mask><style>
            @keyframes float1 {
                0%{transform: translate(0, 0)}
                50%{transform: translate(-10px, 0)}
                100%{transform: translate(0, 0)}
            }

            .triangle-float1 {
                animation: float1 5s infinite;
            }

            @keyframes float2 {
                0%{transform: translate(0, 0)}
                50%{transform: translate(-5px, -5px)}
                100%{transform: translate(0, 0)}
            }

            .triangle-float2 {
                animation: float2 4s infinite;
            }

            @keyframes float3 {
                0%{transform: translate(0, 0)}
                50%{transform: translate(0, -10px)}
                100%{transform: translate(0, 0)}
            }

            .triangle-float3 {
                animation: float3 6s infinite;
            }
        </style></defs></svg>